<svg width="147" height="42" viewBox="0 0 147 42" fill="none" xmlns="http://www.w3.org/2000/svg">
<g clip-path="url(#clip0_157_35)">
<path fill-rule="evenodd" clip-rule="evenodd" d="M137.666 13.8715H142.3V0H137.666V13.8715ZM114.953 13.8715H124.223V0H114.953V13.8715ZM87.6045 0V23.1213H92.2403V13.8715H101.51V0H87.6045ZM68.6001 0V13.8715H73.2359V23.1213H77.8717V13.8715H82.5075V0H68.6001ZM59.3301 13.8715H63.966V0H59.3301V13.8715ZM45.4244 0V13.8715H50.0585V41.6178H59.3301V13.8715H54.6943V0H45.4244ZM22.713 13.8715H31.983V0H22.713V13.8715ZM4.63417 13.8715H13.9041V0H4.63417V13.8715ZM133.03 13.8715V41.6178H146.936V23.1213H137.666V13.8715H133.03ZM124.223 23.1213H128.859V13.8715H124.223V23.1213ZM110.317 23.1213H114.953V13.8715H110.317V23.1213ZM101.51 23.1213H106.146V13.8715H101.51V23.1213ZM40.7886 41.6178H45.4244V13.8715H40.7886V41.6178ZM31.983 23.1213H36.6171V13.8715H31.983V23.1213ZM18.0772 23.1213H22.713V13.8715H18.0772V23.1213ZM0 13.8715V41.6178H13.9041V23.1213H4.63417V13.8715H0ZM114.953 41.6178H124.223V23.1213H114.953V41.6178ZM92.2403 41.6178H101.51V23.1213H92.2403V41.6178ZM82.9703 41.6178H87.6045V23.1213H82.9703V41.6178ZM68.6001 41.6178H73.2343V23.1213H68.6001V41.6178ZM22.713 41.6178H31.983V23.1213H22.713V41.6178Z" fill="white"/>
</g>
<defs>
<clipPath id="clip0_157_35">
<rect width="146.936" height="41.6319" fill="white"/>
</clipPath>
</defs>
</svg>
